<?xml version="1.0" encoding="UTF-8" standalone="no"?>
<!DOCTYPE svg PUBLIC "-//W3C//DTD SVG 1.1//EN" "http://www.w3.org/Graphics/SVG/1.1/DTD/svg11.dtd">
<svg width="100%" height="100%" viewBox="0 0 3879 1086" version="1.1" xmlns="http://www.w3.org/2000/svg" xmlns:xlink="http://www.w3.org/1999/xlink" xml:space="preserve" xmlns:serif="http://www.serif.com/" style="fill-rule:evenodd;clip-rule:evenodd;stroke-linecap:round;stroke-miterlimit:1.5;">
    <g transform="matrix(1,0,0,1,-477.00116,-1602.711756)">
        <g id="_1F" serif:id="1F">
            <g>
                <path d="M1629.401,2170.133L1861.798,2170.133L1861.798,2115.749C1861.798,2115.304 1862.159,2114.944 1862.604,2114.944L3918.41,2114.944C3918.855,2114.944 3919.216,2115.304 3919.216,2115.749L3919.216,2608.37C3919.216,2608.815 3918.855,2609.176 3918.41,2609.176L1725.529,2609.176C1725.084,2609.176 1724.723,2608.815 1724.723,2608.37L1724.723,2574.594L1629.401,2574.594L1629.401,2618.654C1629.401,2619.099 1629.041,2619.46 1628.596,2619.46L1165.756,2619.46C1165.557,2619.46 1165.364,2619.386 1165.216,2619.252L933.382,2409.866C933.212,2409.713 933.116,2409.496 933.116,2409.268L933.116,1837.611C933.116,1837.397 933.201,1837.192 933.352,1837.041C933.503,1836.89 933.708,1836.805 933.922,1836.806L1472.658,1837.296C1473.103,1837.296 1473.463,1837.657 1473.463,1838.101L1473.463,1981.858L1629.125,2117.365C1629.3,2117.518 1629.401,2117.739 1629.401,2117.972L1629.401,2170.133Z" style="fill:rgb(249,247,244);"/>
                <path d="M1629.401,2170.133L1747.035,2170.133L1747.035,2171.744L1628.596,2171.744C1628.151,2171.744 1627.79,2171.383 1627.79,2170.938L1627.79,2118.339L1472.128,1982.832C1471.952,1982.679 1471.852,1982.457 1471.852,1982.224L1471.852,1838.906L934.727,1838.418L934.727,2408.91L986.734,2455.881L985.654,2457.077L933.382,2409.866C933.212,2409.713 933.116,2409.496 933.116,2409.268L933.116,1837.611C933.116,1837.397 933.201,1837.192 933.352,1837.041C933.503,1836.89 933.708,1836.805 933.922,1836.806L1472.658,1837.296C1473.103,1837.296 1473.463,1837.657 1473.463,1838.101L1473.463,1981.858L1629.125,2117.365C1629.3,2117.518 1629.401,2117.739 1629.401,2117.972L1629.401,2170.133Z" style="fill:none;stroke:rgb(115,108,97);stroke-width:6.25px;"/>
                <path d="M1124.469,2582.45L1125.549,2581.254L1166.066,2617.849L1627.79,2617.849L1627.79,2573.789C1627.79,2573.344 1628.151,2572.983 1628.596,2572.983L1725.529,2572.983C1725.974,2572.983 1726.335,2573.344 1726.335,2573.789L1726.335,2607.564L3917.604,2607.564L3917.604,2402.902L3919.216,2402.902L3919.216,2608.37C3919.216,2608.815 3918.855,2609.176 3918.41,2609.176L1725.529,2609.176C1725.084,2609.176 1724.723,2608.815 1724.723,2608.37L1724.723,2574.594L1629.401,2574.594L1629.401,2618.654C1629.401,2619.099 1629.041,2619.46 1628.596,2619.46L1165.756,2619.46C1165.557,2619.46 1165.364,2619.386 1165.216,2619.252L1124.469,2582.45Z" style="fill:none;stroke:rgb(115,108,97);stroke-width:6.25px;"/>
                <path d="M3919.216,2339.061L3917.604,2339.061L3917.604,2116.555L2145.8,2116.555L1863.41,2116.555L1863.41,2170.938C1863.41,2171.383 1863.049,2171.744 1862.604,2171.744L1836,2171.744L1836,2170.133L1861.798,2170.133L1861.798,2115.749C1861.798,2115.304 1862.159,2114.944 1862.604,2114.944L3918.41,2114.944C3918.855,2114.944 3919.216,2115.304 3919.216,2115.749L3919.216,2339.061Z" style="fill:none;stroke:rgb(115,108,97);stroke-width:6.25px;"/>
            </g>
            <g id="honkan_1">
                <path d="M1725.529,2573.789L1725.8,2428.014L1628.596,2427.956L3918.41,2429.325" style="fill:none;stroke:rgb(115,108,97);stroke-width:6.25px;"/>
                <g id="kouchou">
                    <g transform="matrix(1.008556,0,0,1,-15.927373,0)">
                        <path d="M1726.684,2427.956L1998.375,2428.178L1998.375,2608.37L1726.684,2608.37L1726.684,2427.956Z" style="fill:rgb(224,218,211);stroke:rgb(115,108,97);stroke-width:6.22px;"/>
                    </g>
                    <g transform="matrix(1,0,0,1,-1951.882473,247.158278)">
                        <text x="3764.419px" y="2282.333px" style="font-family:'MS-UIGothic', 'MS UI Gothic', sans-serif;font-size:33.333px;">校長室</text>
                    </g>
                </g>
                <g transform="matrix(1.008556,0,0,1,258.088375,0)">
                    <path d="M1726.684,2427.956L1998.375,2428.178L1998.375,2608.37L1726.684,2608.37L1726.684,2427.956Z" style="fill:rgb(249,247,244);stroke:rgb(115,108,97);stroke-width:6.22px;"/>
                </g>
                <g id="shokuin" transform="matrix(2.5,0,0,1,-3410.340618,0)">
                    <g transform="matrix(1.008556,0,0,1,532.104123,0)">
                        <path d="M1726.684,2427.956L1998.375,2428.178L1998.375,2608.37L1726.684,2608.37L1726.684,2427.956Z" style="fill:rgb(224,218,211);stroke:rgb(115,108,97);stroke-width:3.26px;"/>
                    </g>
                    <g transform="matrix(0.4,0,0,1,802.595856,247.158278)">
                        <text x="3969.931px" y="2282.333px" style="font-family:'MS-UIGothic', 'MS UI Gothic', sans-serif;font-size:33.333px;">職員室</text>
                    </g>
                </g>
                <g id="hoken" transform="matrix(1,0,0,1,-137.007874,0)">
                    <g transform="matrix(1.008556,0,0,1,1354.151368,0)">
                        <path d="M1726.684,2427.956L1998.375,2428.178L1998.375,2608.37L1726.684,2608.37L1726.684,2427.956Z" style="fill:rgb(224,218,211);stroke:rgb(115,108,97);stroke-width:6.22px;"/>
                    </g>
                    <g transform="matrix(1,0,0,1,-581.803733,247.158278)">
                        <text x="3764.419px" y="2282.333px" style="font-family:'MS-UIGothic', 'MS UI Gothic', sans-serif;font-size:33.333px;">保健室</text>
                    </g>
                </g>
                <g transform="matrix(0.504278,0,0,1,2361.887386,0)">
                    <path d="M1726.684,2427.956L1998.375,2428.178L1998.375,2608.37L1726.684,2608.37L1726.684,2427.956Z" style="fill:rgb(249,247,244);stroke:rgb(115,108,97);stroke-width:7.89px;"/>
                </g>
                <g id="_29" serif:id="29">
                    <g transform="matrix(1.008556,0,0,1,1628.167116,0)">
                        <path d="M1726.684,2427.956L1998.375,2428.178L1998.375,2608.37L1726.684,2608.37L1726.684,2427.956Z" style="fill:rgb(224,218,211);stroke:rgb(115,108,97);stroke-width:6.22px;"/>
                    </g>
                    <g transform="matrix(1,0,0,1,-307.787985,247.158278)">
                        <g transform="matrix(33.333333,0,0,33.333333,3838.507804,2282.943208)">
                        </g>
                        <text x="3790.331px" y="2282.943px" style="font-family:'ArialMT', 'Arial', sans-serif;font-size:33.333px;">2-9</text>
                    </g>
                </g>
                <g id="_19" serif:id="19">
                    <g transform="matrix(1.008556,0,0,1,1902.182864,0)">
                        <path d="M1726.684,2427.956L1998.375,2428.178L1998.375,2608.37L1726.684,2608.37L1726.684,2427.956Z" style="fill:rgb(224,218,211);stroke:rgb(115,108,97);stroke-width:6.22px;"/>
                    </g>
                    <g transform="matrix(1,0,0,1,-33.772237,247.158278)">
                        <g transform="matrix(33.333333,0,0,33.333333,3838.507804,2282.943208)">
                        </g>
                        <text x="3790.331px" y="2282.943px" style="font-family:'ArialMT', 'Arial', sans-serif;font-size:33.333px;">1-9</text>
                    </g>
                </g>
                <g id="kaigi" transform="matrix(1.966252,0,0,1.120913,-2324.592568,-605.778278)">
                    <g transform="matrix(1.008556,0,0,1,532.104123,0)">
                        <path d="M1726.684,2427.956L1998.375,2428.178L1998.375,2608.37L1726.684,2608.37L1726.684,2427.956Z" style="fill:rgb(224,218,211);stroke:rgb(115,108,97);stroke-width:3.88px;"/>
                    </g>
                    <g transform="matrix(0.508582,0,0,0.89213,403.29583,482.401311)">
                        <text x="3896.803px" y="2293.24px" style="font-family:'MS-UIGothic', 'MS UI Gothic', sans-serif;font-size:33.333px;">会議室</text>
                    </g>
                </g>
                <g transform="matrix(0.504278,0,0,1.120913,1950.863764,-605.778278)">
                    <path d="M1726.684,2427.956L1998.375,2428.178L1998.375,2608.37L1726.684,2608.37L1726.684,2427.956Z" style="fill:rgb(249,247,244);stroke:rgb(115,108,97);stroke-width:7.19px;"/>
                </g>
                <g transform="matrix(0.504278,0,0,1.120913,1813.85589,-605.778278)">
                    <path d="M1726.684,2427.956L1998.375,2428.178L1998.375,2608.37L1726.684,2608.37L1726.684,2427.956Z" style="fill:rgb(249,247,244);stroke:rgb(115,108,97);stroke-width:7.19px;"/>
                </g>
                <g transform="matrix(1.008556,0,0,1.120913,1217.143493,-605.778278)">
                    <path d="M1726.684,2427.956L1998.375,2428.178L1998.375,2608.37L1726.684,2608.37L1726.684,2427.956Z" style="fill:rgb(249,247,244);stroke:rgb(115,108,97);stroke-width:5.86px;"/>
                </g>
                <g transform="matrix(0.504278,0,0,1.120913,2361.887386,-605.778278)">
                    <path d="M1726.684,2427.956L1998.375,2428.178L1998.375,2608.37L1726.684,2608.37L1726.684,2427.956Z" style="fill:rgb(249,247,244);stroke:rgb(115,108,97);stroke-width:7.19px;"/>
                </g>
                <g id="tamokuteki" transform="matrix(1,0,0,1.120913,-274.015748,-605.778278)">
                    <g transform="matrix(1.008556,0,0,1,1902.182864,0)">
                        <path d="M1726.684,2427.956L1998.375,2428.178L1998.375,2608.37L1726.684,2608.37L1726.684,2427.956Z" style="fill:rgb(224,218,211);stroke:rgb(115,108,97);stroke-width:5.86px;"/>
                    </g>
                    <g transform="matrix(1,0,0,0.89213,-33.772237,482.401311)">
                        <text x="3731.086px" y="2293.24px" style="font-family:'MS-UIGothic', 'MS UI Gothic', sans-serif;font-size:33.333px;">多目的教室</text>
                    </g>
                </g>
                <g id="EV_honkan_1">
                    <rect x="1628.596" y="2170.938" width="97.204" height="147.04" style="fill:rgb(255,248,142);stroke:rgb(115,108,97);stroke-width:6.25px;"/>
                    <g transform="matrix(1,0,0,1,-2048.815752,-9.859331)">
                        <g transform="matrix(33.333333,0,0,33.333333,3748.24666,2266.255922)">
                        </g>
                        <text x="3703.781px" y="2266.256px" style="font-family:'ArialMT', 'Arial', sans-serif;font-size:33.333px;">EV</text>
                    </g>
                </g>
                <g id="stairs_honkan_1_W">
                    <g transform="matrix(1,0,0,1,234.070976,-56.059015)">
                        <rect x="1628.533" y="2171.808" width="136.941" height="202.229" style="fill:rgb(255,248,142);stroke:rgb(115,108,97);stroke-width:6.25px;"/>
                    </g>
                    <g transform="matrix(1,0,0,0.598898,-1918.865328,929.745539)">
                        <path d="M3849.94,2317.978L3849.94,2115.749" style="fill:none;stroke:rgb(115,108,97);stroke-width:7.58px;"/>
                    </g>
                    <g transform="matrix(1,0,0,1,-1918.865328,70)">
                        <path d="M3781.469,2216.864L3918.41,2216.864" style="fill:none;stroke:rgb(115,108,97);stroke-width:6.25px;"/>
                    </g>
                    <g transform="matrix(1,0,0,1,-1918.865328,40)">
                        <path d="M3781.469,2216.864L3918.41,2216.864" style="fill:none;stroke:rgb(115,108,97);stroke-width:6.25px;"/>
                    </g>
                    <g transform="matrix(1,0,0,1,-1918.865328,10)">
                        <path d="M3781.469,2216.864L3918.41,2216.864" style="fill:none;stroke:rgb(115,108,97);stroke-width:6.25px;"/>
                    </g>
                    <g transform="matrix(1,0,0,1,-1918.865328,-20)">
                        <path d="M3781.469,2216.864L3918.41,2216.864" style="fill:none;stroke:rgb(115,108,97);stroke-width:6.25px;"/>
                    </g>
                </g>
                <g id="stairs_honkan_1_takaradsuka" transform="matrix(1.131793,0.985874,-0.656826,0.754043,755.356934,-1447.317283)">
                    <g transform="matrix(0.258827,-0.338404,0.181302,0.312406,1184.822263,2098.775528)">
                        <rect x="1628.533" y="2171.808" width="136.941" height="202.229" style="fill:rgb(255,248,142);stroke:rgb(115,108,97);stroke-width:13.37px;"/>
                    </g>
                    <g transform="matrix(0.258827,-0.338404,0.319247,0.550103,330.762319,2315.877209)">
                        <path d="M3781.469,2216.864L3918.41,2216.864" style="fill:none;stroke:rgb(115,108,97);stroke-width:9.9px;"/>
                    </g>
                    <g transform="matrix(0.258827,-0.338404,0.319247,0.550103,321.184899,2299.374105)">
                        <path d="M3781.469,2216.864L3918.41,2216.864" style="fill:none;stroke:rgb(115,108,97);stroke-width:9.9px;"/>
                    </g>
                    <g transform="matrix(0.258827,-0.338404,0.319247,0.550103,340.339739,2332.380314)">
                        <path d="M3781.469,2216.864L3918.41,2216.864" style="fill:none;stroke:rgb(115,108,97);stroke-width:9.9px;"/>
                    </g>
                    <g transform="matrix(0.267739,0.461348,-0.202842,0.265206,1830.45193,836.388337)">
                        <rect x="1628.533" y="2171.808" width="136.941" height="202.229" style="fill:rgb(255,248,142);stroke:rgb(115,108,97);stroke-width:12.06px;"/>
                    </g>
                    <g transform="matrix(0.267739,0.461348,-0.357177,0.466992,1586.113373,-591.052064)">
                        <path d="M3781.469,2216.864L3918.41,2216.864" style="fill:none;stroke:rgb(115,108,97);stroke-width:9.42px;"/>
                    </g>
                    <g transform="matrix(0.267739,0.461348,-0.357177,0.466992,1596.828683,-605.061811)">
                        <path d="M3781.469,2216.864L3918.41,2216.864" style="fill:none;stroke:rgb(115,108,97);stroke-width:9.42px;"/>
                    </g>
                    <g transform="matrix(0.267739,0.461348,-0.357177,0.466992,1575.398062,-577.042318)">
                        <path d="M3781.469,2216.864L3918.41,2216.864" style="fill:none;stroke:rgb(115,108,97);stroke-width:9.42px;"/>
                    </g>
                    <g transform="matrix(1,0,0,1,234.070976,-56.059015)">
                        <path d="M1628.533,2171.808L1765.474,2171.808L1802.06,2235.087L1765.474,2282.923L1765.474,2374.037L1628.533,2374.037L1628.533,2282.923L1591.869,2219.745L1628.533,2171.808Z" style="fill:rgb(255,248,142);stroke:rgb(115,108,97);stroke-width:4.9px;"/>
                    </g>
                    <g transform="matrix(1,0,0,1,-1918.865328,70)">
                        <path d="M3781.469,2216.864L3918.41,2216.864" style="fill:none;stroke:rgb(115,108,97);stroke-width:4.9px;"/>
                    </g>
                    <g transform="matrix(1,0,0,1,-1918.865328,40)">
                        <path d="M3781.469,2216.864L3918.41,2216.864" style="fill:none;stroke:rgb(115,108,97);stroke-width:4.9px;"/>
                    </g>
                    <g transform="matrix(1,0,0,1,-1918.865328,10)">
                        <path d="M3781.469,2216.864L3918.41,2216.864" style="fill:none;stroke:rgb(115,108,97);stroke-width:4.9px;"/>
                    </g>
                </g>
                <g id="WC_honkan_1_W">
                    <g transform="matrix(1,0,0,1,371.07885,-56.059015)">
                        <rect x="1628.533" y="2171.808" width="146.188" height="202.229" style="fill:rgb(224,218,211);stroke:rgb(115,108,97);stroke-width:6.25px;"/>
                    </g>
                    <g transform="matrix(1,0,0,1,-1677.866725,-65.048331)">
                        <g transform="matrix(33.333333,0,0,33.333333,3778.306001,2293.850422)">
                        </g>
                        <text x="3722.772px" y="2293.85px" style="font-family:'ArialMT', 'Arial', sans-serif;font-size:33.333px;">WC</text>
                    </g>
                </g>
                <g id="stairs_honkan_1_E">
                    <g transform="matrix(-1,0,0,1,5544.332979,-56.059015)">
                        <rect x="1625.923" y="2171.808" width="136.941" height="202.229" style="fill:rgb(255,248,142);stroke:rgb(115,108,97);stroke-width:6.25px;"/>
                    </g>
                    <g transform="matrix(1,0,0,0.598898,0,929.745539)">
                        <path d="M3849.94,2317.978L3849.94,2115.749" style="fill:none;stroke:rgb(115,108,97);stroke-width:7.58px;"/>
                    </g>
                    <g transform="matrix(1,0,0,1,0,70)">
                        <path d="M3781.469,2216.864L3918.41,2216.864" style="fill:none;stroke:rgb(115,108,97);stroke-width:6.25px;"/>
                    </g>
                    <g transform="matrix(1,0,0,1,0,40)">
                        <path d="M3781.469,2216.864L3918.41,2216.864" style="fill:none;stroke:rgb(115,108,97);stroke-width:6.25px;"/>
                    </g>
                    <g transform="matrix(1,0,0,1,0,10)">
                        <path d="M3781.469,2216.864L3918.41,2216.864" style="fill:none;stroke:rgb(115,108,97);stroke-width:6.25px;"/>
                    </g>
                    <g transform="matrix(1,0,0,1,0,-20)">
                        <path d="M3781.469,2216.864L3918.41,2216.864" style="fill:none;stroke:rgb(115,108,97);stroke-width:6.25px;"/>
                    </g>
                </g>
                <g id="stairs_honkan_1_out" transform="matrix(1,0,0,1,136.746413,223.311699)">
                    <g transform="matrix(-1,0,0,1,5544.332979,-56.059015)">
                        <path d="M1762.669,2235.65L1762.669,2372.093L1675.729,2372.093L1675.729,2171.808L1762.669,2171.808" style="fill:rgb(255,248,142);stroke:rgb(115,108,97);stroke-width:6.25px;stroke-linecap:square;"/>
                    </g>
                    <g transform="matrix(1,0,0,1,0,70)">
                        <path d="M3781.664,2214.919L3868.604,2214.919" style="fill:none;stroke:rgb(115,108,97);stroke-width:6.25px;"/>
                    </g>
                    <g transform="matrix(1,0,0,1,0,40)">
                        <path d="M3781.664,2214.919L3868.604,2214.919" style="fill:none;stroke:rgb(115,108,97);stroke-width:6.25px;"/>
                    </g>
                    <g transform="matrix(1,0,0,1,0,10)">
                        <path d="M3781.664,2214.919L3868.604,2214.919" style="fill:none;stroke:rgb(115,108,97);stroke-width:6.25px;"/>
                    </g>
                    <g transform="matrix(1,0,0,1,0,-20)">
                        <path d="M3781.664,2214.919L3868.604,2214.919" style="fill:none;stroke:rgb(115,108,97);stroke-width:6.25px;"/>
                    </g>
                </g>
                <g id="WC_honkan_1_E">
                    <g transform="matrix(-1,0,0,1,5407.325105,-56.059015)">
                        <rect x="1625.923" y="2171.808" width="146.188" height="202.229" style="fill:rgb(224,218,211);stroke:rgb(115,108,97);stroke-width:6.25px;"/>
                    </g>
                    <g transform="matrix(1,0,0,1,-42.197509,-65.048331)">
                        <g transform="matrix(33.333333,0,0,33.333333,3778.306001,2293.850422)">
                        </g>
                        <text x="3722.772px" y="2293.85px" style="font-family:'ArialMT', 'Arial', sans-serif;font-size:33.333px;">WC</text>
                    </g>
                </g>
                <g transform="matrix(0.490192,0,0,1.052537,649.279957,-127.55831)">
                    <path d="M1726.684,2427.956L1998.375,2428.178L1998.375,2608.37L1726.684,2608.37L1726.684,2427.956Z" style="fill:rgb(249,247,244);stroke:rgb(115,108,97);stroke-width:7.61px;"/>
                </g>
                <g id="jimu" transform="matrix(1,0,0,1.052537,-503.858394,-127.55831)">
                    <g transform="matrix(1.008556,0,0,1,-15.927373,0)">
                        <path d="M1799.988,2427.956L1998.375,2428.178L1998.375,2608.37L1671.244,2609.136L1671.244,2556.932L1799.988,2427.956Z" style="fill:rgb(224,218,211);stroke:rgb(115,108,97);stroke-width:6.06px;"/>
                    </g>
                    <g transform="matrix(1,0,0,0.950085,-1951.882473,356.012636)">
                        <text x="3764.419px" y="2287.072px" style="font-family:'MS-UIGothic', 'MS UI Gothic', sans-serif;font-size:33.333px;">事務室</text>
                    </g>
                </g>
                <g id="higashikobe" transform="matrix(0.486034,0,0,1.052537,94.716446,-342.504601)">
                    <g transform="matrix(1.008556,0,0,1,-15.927373,0)">
                        <path d="M1726.684,2427.956L2200.732,2427.956L2200.732,2518.163L1971.486,2614.986L1726.684,2614.986L1726.684,2427.956Z" style="fill:rgb(224,218,211);stroke:rgb(115,108,97);stroke-width:7.61px;"/>
                    </g>
                    <g transform="matrix(2.057471,0,0,0.950085,-5840.637695,356.012636)">
                        <text x="3693.599px" y="2287.072px" style="font-family:'MS-UIGothic', 'MS UI Gothic', sans-serif;font-size:33.333px;">東神戸資料室</text>
                    </g>
                </g>
                <g id="koushihenshuu" transform="matrix(0.486034,0,0,1.052537,94.716446,-539.360608)">
                    <g transform="matrix(1.008556,0,0,1,-15.927373,0)">
                        <rect x="1726.684" y="2427.956" width="474.049" height="187.03" style="fill:rgb(224,218,211);stroke:rgb(115,108,97);stroke-width:7.61px;"/>
                    </g>
                    <g transform="matrix(2.057471,0,0,0.950085,-5840.637695,356.012636)">
                        <text x="3710.266px" y="2290.554px" style="font-family:'MS-UIGothic', 'MS UI Gothic', sans-serif;font-size:33.333px;">校史編集室</text>
                    </g>
                </g>
                <g id="koushikinen" transform="matrix(0.486034,0,0,0.958927,94.716446,-491.42773)">
                    <g transform="matrix(1.008556,0,0,1,-15.927373,0)">
                        <rect x="1726.684" y="2427.956" width="474.049" height="187.03" style="fill:rgb(224,218,211);stroke:rgb(115,108,97);stroke-width:8.21px;"/>
                    </g>
                    <g transform="matrix(2.057471,0,0,1.042832,-5840.637695,153.75053)">
                        <text x="3710.266px" y="2281.8px" style="font-family:'MS-UIGothic', 'MS UI Gothic', sans-serif;font-size:33.333px;">校史記念室</text>
                    </g>
                </g>
                <g id="kokugo_junbi" transform="matrix(0.486034,0,0,0.958927,349.465658,-465.968568)">
                    <g transform="matrix(1.008556,0,0,1,-15.927373,0)">
                        <path d="M1905.442,2402.467L2307.123,2402.758L2309.375,2555.26L1907.694,2554.969L1905.442,2402.467Z" style="fill:rgb(224,218,211);stroke:rgb(115,108,97);stroke-width:8.21px;"/>
                    </g>
                    <g transform="matrix(2.057471,0,0,1.042832,-5658.078294,128.552325)">
                        <text x="3691.976px" y="2265.106px" style="font-family:'MS-UIGothic', 'MS UI Gothic', sans-serif;font-size:33.333px;">国語準備室</text>
                    </g>
                </g>
                <g transform="matrix(0,-1,1,0,1082.169088,5840.886725)">
                    <path d="M3505.083,1133.547L3505.083,1145.133L3487.257,1127.308L3505.083,1109.482L3505.083,1121.068L3540.735,1121.068L3540.735,1109.482L3558.561,1127.308L3540.735,1145.133L3540.735,1133.547L3505.083,1133.547Z" style="fill:rgb(255,0,0);"/>
                </g>
                <g transform="matrix(0,-1,1,0,2289.989792,5840.886725)">
                    <path d="M3505.083,1133.547L3505.083,1145.133L3487.257,1127.308L3505.083,1109.482L3505.083,1121.068L3540.735,1121.068L3540.735,1109.482L3558.561,1127.308L3540.735,1145.133L3540.735,1133.547L3505.083,1133.547Z" style="fill:rgb(255,0,0);"/>
                </g>
                <g transform="matrix(0,-1,1,0,2468.657761,5840.886725)">
                    <path d="M3505.083,1133.547L3505.083,1145.133L3487.257,1127.308L3505.083,1109.482L3505.083,1121.068L3540.735,1121.068L3540.735,1109.482L3558.561,1127.308L3540.735,1145.133L3540.735,1133.547L3505.083,1133.547Z" style="fill:rgb(255,0,0);"/>
                </g>
                <g transform="matrix(0,-1,1,0,1191.992519,5950.864798)">
                    <path d="M3505.083,1133.547L3505.083,1145.133L3487.257,1127.308L3505.083,1109.482L3505.083,1121.068L3540.735,1121.068L3540.735,1109.482L3558.561,1127.308L3540.735,1145.133L3540.735,1133.547L3505.083,1133.547Z" style="fill:rgb(255,0,0);"/>
                </g>
                <g transform="matrix(0,-1,1,0,1740.024015,5950.864798)">
                    <path d="M3505.083,1133.547L3505.083,1145.133L3487.257,1127.308L3505.083,1109.482L3505.083,1121.068L3540.735,1121.068L3540.735,1109.482L3558.561,1127.308L3540.735,1145.133L3540.735,1133.547L3505.083,1133.547Z" style="fill:rgb(255,0,0);"/>
                </g>
                <g transform="matrix(0,-1,1,0,1874.303801,5950.864798)">
                    <path d="M3505.083,1133.547L3505.083,1145.133L3487.257,1127.308L3505.083,1109.482L3505.083,1121.068L3540.735,1121.068L3540.735,1109.482L3558.561,1127.308L3540.735,1145.133L3540.735,1133.547L3505.083,1133.547Z" style="fill:rgb(255,0,0);"/>
                </g>
                <g transform="matrix(0,-1,1,0,2288.055511,5950.864798)">
                    <path d="M3505.083,1133.547L3505.083,1145.133L3487.257,1127.308L3505.083,1109.482L3505.083,1121.068L3540.735,1121.068L3540.735,1109.482L3558.561,1127.308L3540.735,1145.133L3540.735,1133.547L3505.083,1133.547Z" style="fill:rgb(255,0,0);"/>
                </g>
                <g transform="matrix(0,-1,1,0,2470.592042,5950.864798)">
                    <path d="M3505.083,1133.547L3505.083,1145.133L3487.257,1127.308L3505.083,1109.482L3505.083,1121.068L3540.735,1121.068L3540.735,1109.482L3558.561,1127.308L3540.735,1145.133L3540.735,1133.547L3505.083,1133.547Z" style="fill:rgb(255,0,0);"/>
                </g>
                <g transform="matrix(0,-1,1,0,2562.071259,5950.864798)">
                    <path d="M3505.083,1133.547L3505.083,1145.133L3487.257,1127.308L3505.083,1109.482L3505.083,1121.068L3540.735,1121.068L3540.735,1109.482L3558.561,1127.308L3540.735,1145.133L3540.735,1133.547L3505.083,1133.547Z" style="fill:rgb(255,0,0);"/>
                </g>
                <g transform="matrix(0,-1,1,0,2744.60779,5950.864798)">
                    <path d="M3505.083,1133.547L3505.083,1145.133L3487.257,1127.308L3505.083,1109.482L3505.083,1121.068L3540.735,1121.068L3540.735,1109.482L3558.561,1127.308L3540.735,1145.133L3540.735,1133.547L3505.083,1133.547Z" style="fill:rgb(255,0,0);"/>
                </g>
                <g transform="matrix(0,-1,1,0,2579.897111,5840.886725)">
                    <path d="M3505.083,1133.547L3505.083,1145.133L3487.257,1127.308L3505.083,1109.482L3505.083,1121.068L3540.735,1121.068L3540.735,1109.482L3558.561,1127.308L3540.735,1145.133L3540.735,1133.547L3505.083,1133.547Z" style="fill:rgb(255,0,0);"/>
                </g>
                <g transform="matrix(0,-1,1,0,945.398413,5840.886725)">
                    <path d="M3505.083,1133.547L3505.083,1145.133L3487.257,1127.308L3505.083,1109.482L3505.083,1121.068L3540.735,1121.068L3540.735,1109.482L3558.561,1127.308L3540.735,1145.133L3540.735,1133.547L3505.083,1133.547Z" style="fill:rgb(255,0,0);"/>
                </g>
            </g>
            <g transform="matrix(0,1,-1,0,3999.588229,-19.632086)">
                <path d="M1629.064,3516.953L1627.978,-350.527" style="fill:none;stroke:rgb(115,108,97);stroke-width:6.25px;"/>
            </g>
            <g id="stairs_out_1" transform="matrix(0,1,-1,0,3943.529214,-253.703063)">
                <g transform="matrix(1,0,0,1,234.070976,-56.059015)">
                    <path d="M1697.535,2224.702L1629.064,2224.702L1629.064,2022.473L1766.005,2022.473L1766.005,2224.702" style="fill:rgb(255,248,142);stroke:rgb(115,108,97);stroke-width:6.25px;"/>
                </g>
                <g transform="matrix(1,0,0,0.598898,-1918.865328,929.745539)">
                    <path d="M3849.384,2068.628L3849.384,1866.4" style="fill:none;stroke:rgb(115,108,97);stroke-width:7.58px;"/>
                </g>
                <g transform="matrix(0.5,-0,-0,1,40.061954,70)">
                    <path d="M3783.087,2067.529L3920.028,2067.529" style="fill:none;stroke:rgb(115,108,97);stroke-width:7.91px;"/>
                </g>
                <g transform="matrix(1,0,0,1,-1918.865328,40)">
                    <path d="M3782,2067.529L3918.941,2067.529" style="fill:none;stroke:rgb(115,108,97);stroke-width:6.25px;"/>
                </g>
                <g transform="matrix(1,0,0,1,-1918.865328,10)">
                    <path d="M3782,2067.529L3918.941,2067.529" style="fill:none;stroke:rgb(115,108,97);stroke-width:6.25px;"/>
                </g>
                <g transform="matrix(1,0,0,1,-1918.865328,-20)">
                    <path d="M3782,2067.529L3918.941,2067.529" style="fill:none;stroke:rgb(115,108,97);stroke-width:6.25px;"/>
                </g>
                <g transform="matrix(1,0,0,1,234.070976,-56.059015)">
                    <path d="M1697.535,2224.702L1629.956,2224.702" style="fill:none;stroke:rgb(115,108,97);stroke-width:6.25px;"/>
                </g>
            </g>
            <g transform="matrix(1,0,0,1,-429.117815,1187.137987)">
                <text x="4188.804px" y="1497.048px" style="font-family:'MS-UIGothic', 'MS UI Gothic', sans-serif;font-size:50px;">本館</text>
                <g transform="matrix(50,0,0,50,4347.153227,1497.047506)">
                </g>
                <text x="4288.804px" y="1497.048px" style="font-family:'ArialMT', 'Arial', sans-serif;font-size:50px;">1F</text>
            </g>
        </g>
    </g>
</svg>
