<?xml version="1.0" encoding="UTF-8" standalone="no"?>
<!DOCTYPE svg PUBLIC "-//W3C//DTD SVG 1.1//EN" "http://www.w3.org/Graphics/SVG/1.1/DTD/svg11.dtd">
<svg width="100%" height="100%" viewBox="0 0 1434 474" version="1.1" xmlns="http://www.w3.org/2000/svg" xmlns:xlink="http://www.w3.org/1999/xlink" xml:space="preserve" xmlns:serif="http://www.serif.com/" style="fill-rule:evenodd;clip-rule:evenodd;stroke-linejoin:round;stroke-miterlimit:2;">
    <g transform="matrix(1,0,0,1,-1037.148254,-749.795357)">
        <g transform="matrix(0.998817,0,0,0.968636,4.619821,20.226777)">
            <path d="M2468.75,753.192C2468.75,753.192 2470.183,762.487 2467.136,800.917C2465.511,821.412 2427.611,846.739 2408.685,859.899C2392.642,871.053 2371.438,871.954 2353.576,879.875C2333.12,888.947 2310.161,907.005 2285.944,914.332C2244.517,926.865 2166.267,946.721 2105.014,955.073C1993.582,970.267 1719.584,990.72 1617.352,1005.498C1573.998,1011.765 1523.322,1027.27 1491.624,1038.711C1469.277,1046.776 1440.776,1067.257 1418.805,1076.295C1396.818,1085.34 1377.742,1088.972 1359.698,1098.009C1344.542,1105.6 1333.979,1120.623 1318.898,1128.363C1283.88,1146.335 1184.849,1191.045 1149.589,1205.841C1136.147,1211.482 1121.055,1212.198 1107.34,1217.14C1090.968,1223.039 1063.623,1237.341 1051.359,1241.235C1045.76,1243.012 1033.752,1240.5 1033.752,1240.5L1033.752,753.192L2468.75,753.192Z" style="fill:rgb(232,68,7);"/>
        </g>
    </g>
</svg>
